<svg width="1200" height="800" viewBox="0 0 1200 800" fill="none" xmlns="http://www.w3.org/2000/svg">
  <rect width="1200" height="800" rx="48" fill="#0E1116"/>
  <circle cx="934" cy="168" r="230" fill="#2563EB" fill-opacity=".22"/>
  <circle cx="198" cy="656" r="240" fill="#0F766E" fill-opacity=".20"/>
  <path d="M160 155h880c35 0 64 29 64 64v362c0 35-29 64-64 64H160c-35 0-64-29-64-64V219c0-35 29-64 64-64Z" fill="#141A23" stroke="#334155" stroke-width="2"/>
  <path d="M164 215h872" stroke="#334155" stroke-width="2"/>
  <circle cx="172" cy="185" r="11" fill="#B7A84D"/>
  <circle cx="210" cy="185" r="11" fill="#64748B"/>
  <circle cx="248" cy="185" r="11" fill="#0F766E"/>
  <rect x="156" y="270" width="238" height="306" rx="32" fill="#F7F7F5"/>
  <rect x="179" y="304" width="192" height="42" rx="21" fill="#E2E8F0"/>
  <rect x="179" y="374" width="192" height="118" rx="24" fill="#0F172A"/>
  <path d="M224 432h102" stroke="#B7A84D" stroke-width="12" stroke-linecap="round"/>
  <rect x="179" y="518" width="116" height="24" rx="12" fill="#CBD5E1"/>
  <rect x="474" y="278" width="472" height="72" rx="28" fill="#F7F7F5"/>
  <rect x="516" y="306" width="182" height="16" rx="8" fill="#0F172A"/>
  <rect x="474" y="388" width="176" height="130" rx="30" fill="#1E293B" stroke="#475569" stroke-width="2"/>
  <rect x="696" y="388" width="176" height="130" rx="30" fill="#1E293B" stroke="#475569" stroke-width="2"/>
  <rect x="918" y="388" width="126" height="130" rx="30" fill="#1E293B" stroke="#475569" stroke-width="2"/>
  <path d="M548 453h72M548 485h42M770 453h72M770 485h42M968 453h42M968 485h26" stroke="#E2E8F0" stroke-width="12" stroke-linecap="round"/>
  <path d="M394 426h80M650 453h46M872 453h46" stroke="#B7A84D" stroke-width="6" stroke-linecap="round"/>
  <path d="M520 580h384" stroke="#64748B" stroke-width="14" stroke-linecap="round"/>
  <path d="M520 622h248" stroke="#334155" stroke-width="14" stroke-linecap="round"/>
  <text x="156" y="704" fill="#F8FAFC" font-family="Arial, sans-serif" font-size="38" font-weight="700">Private rollout control</text>
  <text x="156" y="748" fill="#CBD5E1" font-family="Arial, sans-serif" font-size="24">Access, installs, support and version clarity</text>
</svg>
