<svg width="1200" height="800" viewBox="0 0 1200 800" fill="none" xmlns="http://www.w3.org/2000/svg">
  <rect width="1200" height="800" rx="48" fill="#0E1116"/>
  <circle cx="916" cy="214" r="260" fill="#0F766E" fill-opacity=".24"/>
  <circle cx="272" cy="610" r="260" fill="#2563EB" fill-opacity=".16"/>
  <path d="M600 142l258 96v162c0 167-108 254-258 318-150-64-258-151-258-318V238l258-96Z" fill="#111827" stroke="#475569" stroke-width="3"/>
  <path d="M600 214l176 66v116c0 109-70 168-176 215-106-47-176-106-176-215V280l176-66Z" fill="#F7F7F5"/>
  <circle cx="600" cy="398" r="92" fill="#0E1116"/>
  <circle cx="600" cy="398" r="38" fill="#B7A84D"/>
  <path d="M600 306v54M600 436v54M508 398h54M638 398h54M535 333l38 38M627 425l38 38M665 333l-38 38M573 425l-38 38" stroke="#0F766E" stroke-width="12" stroke-linecap="round"/>
  <rect x="92" y="202" width="266" height="116" rx="30" fill="#F8FAFC" fill-opacity=".94"/>
  <rect x="842" y="494" width="266" height="116" rx="30" fill="#F8FAFC" fill-opacity=".94"/>
  <rect x="128" y="238" width="142" height="16" rx="8" fill="#0F172A"/>
  <rect x="128" y="274" width="192" height="14" rx="7" fill="#64748B"/>
  <rect x="878" y="530" width="142" height="16" rx="8" fill="#0F172A"/>
  <rect x="878" y="566" width="192" height="14" rx="7" fill="#64748B"/>
  <path d="M358 260c70 0 94 58 150 80M842 552c-70 0-94-58-150-80" stroke="#B7A84D" stroke-width="6" stroke-linecap="round" stroke-dasharray="14 18"/>
  <text x="116" y="704" fill="#F8FAFC" font-family="Arial, sans-serif" font-size="38" font-weight="700">Secure AI operating controls</text>
  <text x="116" y="748" fill="#CBD5E1" font-family="Arial, sans-serif" font-size="24">Access, data boundaries, monitoring and accountability</text>
</svg>
