<svg width="1200" height="800" viewBox="0 0 1200 800" fill="none" xmlns="http://www.w3.org/2000/svg">
  <rect width="1200" height="800" rx="48" fill="#0E1116"/>
  <circle cx="960" cy="162" r="260" fill="#B7A84D" fill-opacity=".18"/>
  <circle cx="224" cy="650" r="260" fill="#0F766E" fill-opacity=".18"/>
  <rect x="130" y="138" width="940" height="510" rx="44" fill="#111827" stroke="#334155" stroke-width="2"/>
  <path d="M130 220h940" stroke="#334155" stroke-width="2"/>
  <circle cx="182" cy="178" r="12" fill="#B7A84D"/>
  <circle cx="226" cy="178" r="12" fill="#64748B"/>
  <circle cx="270" cy="178" r="12" fill="#0F766E"/>
  <rect x="190" y="286" width="350" height="42" rx="21" fill="#F7F7F5"/>
  <rect x="190" y="364" width="286" height="22" rx="11" fill="#475569"/>
  <rect x="190" y="414" width="396" height="22" rx="11" fill="#475569"/>
  <rect x="190" y="464" width="318" height="22" rx="11" fill="#475569"/>
  <rect x="660" y="292" width="260" height="230" rx="34" fill="#F7F7F5"/>
  <rect x="710" y="392" width="160" height="96" rx="24" fill="#0F172A"/>
  <path d="M744 392v-44c0-28 20-52 46-52s46 24 46 52v44" stroke="#0F172A" stroke-width="22" stroke-linecap="round"/>
  <path d="M754 438l26 25 54-64" stroke="#B7A84D" stroke-width="16" stroke-linecap="round" stroke-linejoin="round"/>
  <path d="M612 336h48M612 414h48M612 486h48" stroke="#B7A84D" stroke-width="8" stroke-linecap="round"/>
  <text x="150" y="704" fill="#F8FAFC" font-family="Arial, sans-serif" font-size="38" font-weight="700">Software security assurance</text>
  <text x="150" y="748" fill="#CBD5E1" font-family="Arial, sans-serif" font-size="24">Secure design, updates, communication and resilience</text>
</svg>
